REM GENRE Other
REM DATE 2012
REM DISCID 7C0F2409
REM COMMENT "ExactAudioCopy v1.0b3"
PERFORMER "Cradle Of Filth"
TITLE "Midnight In The Labyrinth (CD2)"
FILE "CD2.flac" WAVE
  TRACK 11 AUDIO
    TITLE "The Rape And Ruin Of Angels (Hosannas In Extremis)"
    PERFORMER "Cradle Of Filth"
    ISRC GASQH1200291
    INDEX 01 00:00:00
  TRACK 12 AUDIO
    TITLE "Dusk And Her Embrace"
    PERFORMER "Cradle Of Filth"
    ISRC GASQH1200292
    INDEX 01 08:15:68
  TRACK 13 AUDIO
    TITLE "Summer Dying Fast"
    PERFORMER "Cradle Of Filth"
    ISRC GASQH1200293
    INDEX 01 14:44:48
  TRACK 14 AUDIO
    TITLE "The Twisted Nails Of Faith"
    PERFORMER "Cradle Of Filth"
    ISRC GASQH1200294
    INDEX 01 20:05:35
  TRACK 15 AUDIO
    TITLE "Funeral In Carpathia"
    PERFORMER "Cradle Of Filth"
    ISRC GASQH1200295
    INDEX 01 27:11:47
  TRACK 16 AUDIO
    TITLE "The Forest Whispers My Name"
    PERFORMER "Cradle Of Filth"
    ISRC GASQH1200296
    INDEX 01 35:49:16
  TRACK 17 AUDIO
    TITLE "Cruelty Brought Three Orchids"
    PERFORMER "Cradle Of Filth"
    ISRC GASQH1200297
    INDEX 01 41:22:42
  TRACK 18 AUDIO
    TITLE "A Gothic Romance (Red Roses For The Devils Whore)"
    PERFORMER "Cradle Of Filth"
    ISRC GASQH1200297
    INDEX 01 48:48:00
  TRACK 19 AUDIO
    TITLE "Thirteen Autumns And A Widow"
    PERFORMER "Cradle Of Filth"
    ISRC GASQH1200299
    INDEX 01 57:23:48
